<svg width="154" height="59" viewBox="0 0 154 59" fill="none" xmlns="http://www.w3.org/2000/svg">
<path d="M19.4949 26.1253H16.0768V36.2383C16.0768 36.9223 15.4991 37.5085 14.8251 37.5085C14.1512 37.5085 13.6216 36.9223 13.6216 36.2383V26.1253H10.1554C9.52956 26.1253 9 25.5879 9 24.9528C9 24.3177 9.48142 23.7803 10.1554 23.7803H19.4949C20.1207 23.7803 20.6503 24.3177 20.6503 24.9528C20.6503 25.5879 20.1688 26.1253 19.4949 26.1253Z" fill="white"/>
<path d="M31.1451 24.8549C31.1451 24.171 31.6746 23.5847 32.3486 23.5847C33.0226 23.5847 33.5521 24.171 33.5521 24.8549V31.8412C33.5521 35.3588 31.3858 37.5572 27.8233 37.5572C24.2608 37.5572 22.1426 35.3588 22.1426 31.8412V24.8549C22.1426 24.171 22.6721 23.5847 23.3461 23.5847C24.0201 23.5847 24.5497 24.171 24.5497 24.8549V32.0855C24.5497 33.9908 25.6569 35.3099 27.8233 35.3099C29.9897 35.3099 31.0969 33.9908 31.0969 32.0855L31.1451 24.8549Z" fill="white"/>
<path d="M47.5613 36.2383C47.5613 36.8734 47.0799 37.4597 46.3578 37.4597C45.8282 37.4597 45.4912 37.2154 45.2987 36.7757L42.9397 31.8902H38.8958V36.2383C38.8958 36.9223 38.3663 37.4597 37.6923 37.4597C37.0183 37.4597 36.4888 36.9223 36.4888 36.2383V25.0016C36.4888 24.3177 37.0183 23.7803 37.6923 23.7803H42.8435C46.1652 23.7803 47.6095 25.4413 47.6095 27.8352C47.6095 29.3986 46.9355 30.7665 45.395 31.4505L47.4651 35.7009C47.5132 35.8963 47.5613 36.0429 47.5613 36.2383ZM43.1804 26.0276H38.8958V29.7406H43.1804C44.5284 29.7406 45.1061 28.7635 45.1061 27.8352C45.1061 26.9558 44.5284 26.0276 43.1804 26.0276Z" fill="white"/>
<path d="M51.3645 37.4595C50.6905 37.4595 50.1128 36.8733 50.1128 36.1893V24.8549C50.1128 24.171 50.6905 23.5847 51.3645 23.5847C52.0385 23.5847 52.568 24.171 52.568 24.8549V36.1893C52.568 36.9221 52.0385 37.4595 51.3645 37.4595Z" fill="white"/>
<path d="M60.2228 37.5573C58.586 37.5573 56.7566 37.0687 55.6012 36.1405C55.2161 35.7985 54.9272 35.4076 54.9272 34.9679C54.9272 34.3328 55.3124 33.8931 55.9382 33.8931C56.1789 33.8931 56.3715 33.942 56.5641 34.0886C57.6232 34.7725 58.3934 35.4076 60.271 35.4076C62.1966 35.4076 62.9669 34.626 62.9669 33.6977C62.9669 32.7206 62.1966 32.1832 59.7895 31.5481C56.1789 30.571 55.0717 29.3985 55.0717 27.3466C55.0717 24.855 57.1899 23.5359 60.3672 23.5359C61.0894 23.5359 62.0522 23.6825 62.9188 23.8779C63.8334 24.1221 64.9888 24.7084 64.9888 25.5389C64.9888 26.0763 64.6518 26.6626 63.9779 26.6626C63.8334 26.6626 63.6409 26.6626 63.4965 26.5649C62.5818 26.1252 61.6189 25.7344 60.3672 25.7344C58.586 25.7344 57.4787 26.2229 57.4787 27.2977C57.4787 28.2748 58.2972 28.6168 60.7042 29.3496C63.4483 30.1802 65.374 30.9618 65.374 33.5512C65.4221 35.8962 63.6409 37.5573 60.2228 37.5573Z" fill="white"/>
<path d="M79.9605 37.4595C79.3346 37.4595 78.8051 36.9221 78.8051 36.287V29.545L75.387 36.8244C75.1945 37.2641 74.8093 37.4595 74.3761 37.4595C73.8946 37.4595 73.6058 37.2641 73.3651 36.8244L69.947 29.545V36.287C69.947 36.9221 69.4175 37.4595 68.7916 37.4595C68.1658 37.4595 67.6362 36.9221 67.6362 36.287V24.7572C67.6362 24.1221 68.1176 23.5847 68.7916 23.5847C69.3212 23.5847 69.6582 23.9267 69.8507 24.3175L74.3761 33.8443L78.8532 24.3175C79.0458 23.8778 79.4309 23.5847 79.9123 23.5847C80.6345 23.5847 81.0677 24.0733 81.0677 24.7572V36.287C81.1159 36.971 80.6345 37.4595 79.9605 37.4595Z" fill="white"/>
<path d="M90.215 37.5573C86.2674 37.5573 83.3789 34.4794 83.3789 30.5222C83.3789 26.6138 86.3155 23.4871 90.215 23.4871C94.1626 23.4871 97.0511 26.5649 97.0511 30.5222C97.0511 34.4794 94.1626 37.5573 90.215 37.5573ZM90.215 25.7832C87.4709 25.7832 85.8341 27.9817 85.8341 30.571C85.8341 33.1603 87.5191 35.3588 90.215 35.3588C92.9591 35.3588 94.5959 33.1603 94.5959 30.571C94.5959 27.9817 92.9591 25.7832 90.215 25.7832Z" fill="white"/>
<path d="M112.938 34.1375C113.178 33.942 113.467 33.8443 113.756 33.8443C114.43 33.8443 114.863 34.3817 114.863 34.968C114.863 35.31 114.719 35.5543 114.478 35.7985C113.323 37.0199 111.59 37.5085 110.001 37.5085C106.054 37.5085 103.165 34.7237 103.165 30.4733C103.165 26.223 106.054 23.4382 110.001 23.4382C111.542 23.4382 113.323 23.9756 114.478 25.1482C114.719 25.3924 114.863 25.6367 114.863 25.9787C114.863 26.5649 114.43 27.1024 113.756 27.1024C113.467 27.1024 113.227 27.0046 112.938 26.8092C112.168 26.223 111.349 25.6856 110.001 25.6856C107.353 25.6856 105.668 27.6886 105.668 30.4245C105.668 33.1604 107.401 35.1634 110.001 35.1634C111.349 35.2611 112.216 34.7237 112.938 34.1375Z" fill="white"/>
<path d="M118.281 37.4595C117.607 37.4595 117.03 36.8733 117.03 36.1893V24.8549C117.03 24.171 117.607 23.5847 118.281 23.5847C118.955 23.5847 119.485 24.171 119.485 24.8549V36.1893C119.485 36.9221 118.955 37.4595 118.281 37.4595Z" fill="white"/>
<path d="M131.521 26.1253H128.054V36.2383C128.054 36.9223 127.477 37.5085 126.803 37.5085C126.129 37.5085 125.599 36.9223 125.599 36.2383V26.1253H122.133C121.507 26.1253 120.978 25.5879 120.978 24.9528C120.978 24.3177 121.459 23.7803 122.133 23.7803H131.472C132.098 23.7803 132.628 24.3177 132.628 24.9528C132.676 25.5879 132.146 26.1253 131.521 26.1253Z" fill="white"/>
<path d="M139.271 37.4595C138.597 37.4595 138.02 36.8733 138.02 36.1893V31.3527L133.783 25.4412C133.639 25.1969 133.542 24.9527 133.542 24.7572C133.542 24.171 134.024 23.5847 134.65 23.5847C135.035 23.5847 135.372 23.7801 135.613 24.0733L139.271 29.1053L142.93 24.0733C143.171 23.7313 143.46 23.5847 143.893 23.5847C144.471 23.5847 145 24.1221 145 24.7572C145 25.0015 144.952 25.2458 144.759 25.4412L140.523 31.3527V36.1893C140.475 36.9221 139.945 37.4595 139.271 37.4595Z" fill="white"/>
<path d="M98.4951 40.0001L97.436 39.3161C97.8693 38.5833 98.2544 37.8993 98.5433 37.2153L99.6987 37.7039C99.4098 38.4856 98.9766 39.2184 98.4951 40.0001ZM100.469 33.8443L99.2173 33.7955L99.2654 31.3039L100.517 31.3527L100.469 33.8443ZM100.662 27.5909L99.4098 27.4932C99.458 26.565 99.6024 25.7344 99.7468 24.9039L100.95 25.197C100.806 25.9787 100.71 26.7604 100.662 27.5909ZM102.346 22.0703L101.336 21.3375C101.961 20.5069 102.587 19.9695 102.924 19.6275C103.02 19.5787 103.069 19.481 103.117 19.4321L103.935 20.3604C103.887 20.4092 103.791 20.5069 103.694 20.5558C103.406 20.8978 102.876 21.3375 102.346 22.0703Z" fill="white"/>
<path fill-rule="evenodd" clip-rule="evenodd" d="M101.19 10.223L112.177 20.2151L120.249 7.36977L101.19 10.223Z" fill="white"/>
<path fill-rule="evenodd" clip-rule="evenodd" d="M104.726 13.4632L105.35 18.3909L106.896 15.4082L120.249 7.36981L104.726 13.4632Z" fill="#E3E7EB"/>
<path fill-rule="evenodd" clip-rule="evenodd" d="M108.641 16.9749L105.351 18.3908L106.896 15.4081" fill="#C0C7CF"/>
<path d="M28.93 45.929C28.93 44.686 28.149 43.674 26.323 43.674H23.551C23.177 43.674 22.88 43.971 22.88 44.345V50.417C22.88 50.791 23.177 51.088 23.551 51.088C23.925 51.088 24.222 50.791 24.222 50.417V48.162H26.323C28.149 48.162 28.93 47.172 28.93 45.929ZM27.577 45.929C27.577 46.424 27.247 46.919 26.51 46.919H24.222V44.906H26.51C27.247 44.906 27.577 45.445 27.577 45.929ZM34.5374 48.613C34.5374 47.106 33.5474 46.094 31.9964 46.094C30.5114 46.094 29.4444 47.106 29.4444 48.613C29.4444 49.999 30.3354 51.132 31.8314 51.132C32.5244 51.132 33.0084 50.824 33.2614 50.395V50.417C33.2614 50.769 33.4594 51.088 33.8994 51.088C34.3284 51.088 34.5374 50.769 34.5374 50.417V48.613ZM33.2394 48.613C33.2394 49.35 32.7884 49.988 31.9964 49.988C31.1714 49.988 30.7424 49.35 30.7424 48.613C30.7424 47.843 31.2374 47.238 31.9964 47.238C32.7774 47.238 33.2394 47.81 33.2394 48.613ZM40.6904 50.703V46.798C40.6904 46.435 40.4374 46.138 40.0524 46.138C39.6674 46.138 39.4144 46.435 39.4144 46.809V46.875C39.0954 46.391 38.5564 46.094 37.9074 46.094C36.4444 46.094 35.6744 47.216 35.6744 48.514C35.6744 49.812 36.4554 50.934 37.9074 50.934C38.4794 50.934 39.0404 50.692 39.3704 50.153V50.78C39.3704 51.671 39.0404 52.1 38.0834 52.1C37.6654 52.1 37.3794 52.001 37.1484 51.913C36.9064 51.814 36.7194 51.726 36.5104 51.726C36.2134 51.726 35.9824 51.869 35.9824 52.21C35.9824 52.43 36.1144 52.628 36.3344 52.738C36.7634 52.958 37.4014 53.145 38.0614 53.145C39.8544 53.145 40.6904 52.276 40.6904 50.703ZM36.9944 48.514C36.9944 47.777 37.4344 47.216 38.1934 47.216C38.9524 47.216 39.3704 47.821 39.3704 48.514C39.3704 49.207 38.9414 49.812 38.1934 49.812C37.4344 49.812 36.9944 49.251 36.9944 48.514ZM47.0198 48.613C47.0198 47.106 46.0298 46.094 44.4788 46.094C42.9938 46.094 41.9268 47.106 41.9268 48.613C41.9268 49.999 42.8178 51.132 44.3138 51.132C45.0068 51.132 45.4908 50.824 45.7438 50.395V50.417C45.7438 50.769 45.9418 51.088 46.3818 51.088C46.8108 51.088 47.0198 50.769 47.0198 50.417V48.613ZM45.7218 48.613C45.7218 49.35 45.2708 49.988 44.4788 49.988C43.6538 49.988 43.2248 49.35 43.2248 48.613C43.2248 47.843 43.7198 47.238 44.4788 47.238C45.2598 47.238 45.7218 47.81 45.7218 48.613ZM45.0508 43.674C44.8528 43.674 44.7318 43.751 44.6328 43.883L43.9728 44.741C43.8958 44.829 43.8408 44.939 43.8408 45.071C43.8408 45.346 44.1158 45.577 44.3688 45.577C44.5888 45.577 44.6988 45.5 44.7978 45.368L45.4358 44.51C45.5018 44.422 45.5568 44.301 45.5568 44.191C45.5568 43.872 45.3368 43.674 45.0508 43.674ZM59.5532 50.428V48.316C59.5532 46.996 58.9372 46.094 57.6062 46.094C56.8582 46.094 56.2532 46.424 55.9122 46.919C55.5932 46.413 55.0762 46.094 54.3722 46.094C53.7782 46.094 53.2722 46.391 52.9972 46.897V46.809C52.9972 46.446 52.7222 46.138 52.3372 46.138C51.9302 46.138 51.6772 46.446 51.6772 46.809V50.428C51.6772 50.791 51.9742 51.088 52.3372 51.088C52.7002 51.088 52.9972 50.791 52.9972 50.428V48.426C52.9972 47.843 53.2502 47.282 53.9872 47.282C54.6692 47.282 54.9442 47.788 54.9442 48.426V50.428C54.9442 50.791 55.2522 51.088 55.6152 51.088C55.9782 51.088 56.2752 50.791 56.2752 50.428V48.426C56.2752 47.843 56.5392 47.282 57.2652 47.282C57.9472 47.282 58.2222 47.788 58.2222 48.426V50.428C58.2222 50.791 58.5192 51.088 58.8822 51.088C59.2452 51.088 59.5532 50.791 59.5532 50.428ZM65.4777 48.613C65.4777 47.172 64.5647 46.094 63.1897 46.094C61.7487 46.094 60.7037 47.161 60.7037 48.613C60.7037 49.988 61.5617 51.132 63.2117 51.132C63.9707 51.132 64.4547 50.923 64.8177 50.692C65.0487 50.549 65.2907 50.34 65.2907 50.032C65.2907 49.757 65.0927 49.548 64.7627 49.548C64.5647 49.548 64.4327 49.647 64.2787 49.768C64.0257 49.966 63.6847 50.087 63.2667 50.087C62.5077 50.087 62.1447 49.614 62.0787 49.042H65.0047C65.3457 49.042 65.4777 48.822 65.4777 48.613ZM64.2237 48.107H62.1007C62.1667 47.546 62.5847 47.15 63.1897 47.15C63.7727 47.15 64.1247 47.601 64.2237 48.107ZM66.6828 48.371V50.428C66.6828 50.791 66.9798 51.088 67.3428 51.088C67.7058 51.088 68.0028 50.791 68.0028 50.428V48.272C68.0028 47.678 68.3988 47.26 69.0148 47.26C69.6308 47.26 70.0268 47.678 70.0268 48.272V50.428C70.0268 50.791 70.3238 51.088 70.6868 51.088C71.0498 51.088 71.3468 50.791 71.3468 50.428V48.371C71.3468 47.051 70.3458 46.094 69.0148 46.094C67.6838 46.094 66.6828 47.051 66.6828 48.371ZM77.5586 48.613C77.5586 47.227 76.5246 46.094 75.0396 46.094C73.5546 46.094 72.5206 47.227 72.5206 48.613C72.5206 49.999 73.5546 51.132 75.0396 51.132C76.5246 51.132 77.5586 49.999 77.5586 48.613ZM76.2606 48.613C76.2606 49.35 75.7986 49.988 75.0396 49.988C74.2806 49.988 73.8186 49.35 73.8186 48.613C73.8186 47.876 74.2806 47.238 75.0396 47.238C75.7986 47.238 76.2606 47.876 76.2606 48.613ZM82.4763 47.051C82.4763 46.754 82.1903 46.523 81.8053 46.347C81.4313 46.171 81.0243 46.094 80.6063 46.094C79.3083 46.094 78.6373 46.721 78.6373 47.524C78.6373 48.294 79.0443 48.844 80.4413 49.218C81.0903 49.394 81.3433 49.504 81.3433 49.768C81.3433 50.021 81.0683 50.164 80.6503 50.164C80.1883 50.164 79.8253 49.977 79.5943 49.834C79.4403 49.735 79.2973 49.647 79.0773 49.647C78.8133 49.647 78.5933 49.823 78.5933 50.076C78.5933 50.285 78.6703 50.483 78.8793 50.637C79.2973 50.945 79.9353 51.132 80.6173 51.132C81.8603 51.132 82.5973 50.538 82.5973 49.658C82.5973 48.679 81.8493 48.36 80.8043 48.074C80.1003 47.887 79.8913 47.788 79.8913 47.513C79.8913 47.249 80.1663 47.15 80.5733 47.15C80.8483 47.15 81.0903 47.205 81.3873 47.326C81.5963 47.414 81.7943 47.535 81.9703 47.535C82.3333 47.535 82.4763 47.326 82.4763 47.051ZM86.9975 52.485C86.9975 52.848 87.2945 53.145 87.6575 53.145C88.0205 53.145 88.3175 52.848 88.3175 52.485V50.351C88.6475 50.89 89.2085 51.132 89.7805 51.132C91.2325 51.132 92.0135 49.911 92.0135 48.613C92.0135 47.315 91.2435 46.094 89.7805 46.094C89.1315 46.094 88.5925 46.391 88.2735 46.875V46.809C88.2735 46.446 88.0205 46.138 87.6355 46.138C87.2505 46.138 86.9975 46.435 86.9975 46.798V52.485ZM90.6935 48.613C90.6935 49.383 90.2535 50.01 89.4945 50.01C88.7465 50.01 88.3175 49.35 88.3175 48.613C88.3175 47.876 88.7355 47.216 89.4945 47.216C90.2535 47.216 90.6935 47.843 90.6935 48.613ZM97.958 48.613C97.958 47.227 96.924 46.094 95.439 46.094C93.954 46.094 92.92 47.227 92.92 48.613C92.92 49.999 93.954 51.132 95.439 51.132C96.924 51.132 97.958 49.999 97.958 48.613ZM96.66 48.613C96.66 49.35 96.198 49.988 95.439 49.988C94.68 49.988 94.218 49.35 94.218 48.613C94.218 47.876 94.68 47.238 95.439 47.238C96.198 47.238 96.66 47.876 96.66 48.613ZM102.402 46.688C102.402 46.358 102.193 46.094 101.808 46.094C101.17 46.094 100.752 46.402 100.521 46.93V46.809C100.521 46.446 100.224 46.138 99.8609 46.138C99.4649 46.138 99.1899 46.413 99.1899 46.809V50.428C99.1899 50.791 99.4979 51.088 99.8609 51.088C100.224 51.088 100.521 50.791 100.521 50.428V48.712C100.521 47.821 101.027 47.282 101.808 47.282C102.16 47.282 102.402 47.018 102.402 46.688ZM110.404 46.743C110.404 46.413 110.162 46.138 109.81 46.138C109.557 46.138 109.359 46.27 109.26 46.49L108.094 49.229L106.928 46.49C106.84 46.281 106.664 46.138 106.378 46.138C106.037 46.138 105.784 46.413 105.784 46.743C105.784 46.831 105.806 46.908 105.839 46.985L107.555 50.736C107.654 50.945 107.863 51.088 108.094 51.088C108.325 51.088 108.534 50.945 108.633 50.736L110.349 46.985C110.382 46.908 110.404 46.831 110.404 46.743ZM111.327 44.697C111.327 45.115 111.657 45.445 112.075 45.445C112.493 45.445 112.823 45.115 112.823 44.697C112.823 44.279 112.493 43.949 112.075 43.949C111.657 43.949 111.327 44.279 111.327 44.697ZM111.415 50.428C111.415 50.791 111.712 51.088 112.075 51.088C112.438 51.088 112.735 50.791 112.735 50.428V46.798C112.735 46.435 112.438 46.138 112.075 46.138C111.712 46.138 111.415 46.435 111.415 46.798V50.428ZM119.057 48.613C119.057 47.106 118.067 46.094 116.516 46.094C115.031 46.094 113.964 47.106 113.964 48.613C113.964 49.999 114.855 51.132 116.351 51.132C117.044 51.132 117.528 50.824 117.781 50.395V50.417C117.781 50.769 117.979 51.088 118.419 51.088C118.848 51.088 119.057 50.769 119.057 50.417V48.613ZM117.759 48.613C117.759 49.35 117.308 49.988 116.516 49.988C115.691 49.988 115.262 49.35 115.262 48.613C115.262 47.843 115.757 47.238 116.516 47.238C117.297 47.238 117.759 47.81 117.759 48.613ZM121.844 46.798C121.844 46.435 121.558 46.138 121.195 46.138C120.832 46.138 120.524 46.435 120.524 46.798V51.33C120.524 51.77 120.348 52.045 119.809 52.045H119.787C119.479 52.045 119.237 52.287 119.237 52.595C119.237 52.903 119.479 53.145 119.787 53.145H119.941C121.305 53.145 121.844 52.452 121.844 51.275V46.798ZM120.447 44.697C120.447 45.115 120.777 45.445 121.195 45.445C121.613 45.445 121.943 45.115 121.943 44.697C121.943 44.279 121.613 43.949 121.195 43.949C120.777 43.949 120.447 44.279 120.447 44.697ZM128.166 48.613C128.166 47.106 127.176 46.094 125.625 46.094C124.14 46.094 123.073 47.106 123.073 48.613C123.073 49.999 123.964 51.132 125.46 51.132C126.153 51.132 126.637 50.824 126.89 50.395V50.417C126.89 50.769 127.088 51.088 127.528 51.088C127.957 51.088 128.166 50.769 128.166 50.417V48.613ZM126.868 48.613C126.868 49.35 126.417 49.988 125.625 49.988C124.8 49.988 124.371 49.35 124.371 48.613C124.371 47.843 124.866 47.238 125.625 47.238C126.406 47.238 126.868 47.81 126.868 48.613ZM132.845 46.688C132.845 46.358 132.636 46.094 132.251 46.094C131.613 46.094 131.195 46.402 130.964 46.93V46.809C130.964 46.446 130.667 46.138 130.304 46.138C129.908 46.138 129.633 46.413 129.633 46.809V50.428C129.633 50.791 129.941 51.088 130.304 51.088C130.667 51.088 130.964 50.791 130.964 50.428V48.712C130.964 47.821 131.47 47.282 132.251 47.282C132.603 47.282 132.845 47.018 132.845 46.688Z" fill="#8CC2FF"/>
</svg>
