<svg width="15" height="16" viewBox="0 0 15 16" fill="none" xmlns="http://www.w3.org/2000/svg">
<path d="M11.6109 15.35C11.6599 15.4316 11.7234 15.4787 11.8051 15.495C11.8867 15.5113 11.9593 15.4878 12.0246 15.4225L12.8991 14.5489C13.0605 14.3876 13.1168 14.1846 13.0696 13.9417L11.2227 6.71549C11.1574 6.48893 11.2154 6.28775 11.3932 6.10832L14.4285 3.07609C14.59 2.91478 14.7115 2.7281 14.7932 2.51785C15.0689 1.88712 15.0689 1.38507 14.7932 1.01352C14.7605 0.948267 14.7206 0.892081 14.6716 0.843145C14.6226 0.794209 14.5591 0.745272 14.4775 0.698149C14.4612 0.681837 14.4376 0.665525 14.4049 0.649212C14.3723 0.6329 14.3323 0.616588 14.2834 0.600276C14.1382 0.518716 13.9604 0.487904 13.75 0.504216C13.5395 0.520528 13.3617 0.553152 13.2166 0.602089L12.9735 0.699961C12.7793 0.797834 12.6015 0.926518 12.4401 1.08783L9.40114 4.12006C9.22334 4.29768 9.02014 4.35387 8.79335 4.29043L1.55983 2.44717C1.31672 2.39823 1.11533 2.45623 0.952047 2.61754L0.0775656 3.49114C0.0122516 3.55639 -0.011334 3.62888 0.00499446 3.70863C0.021323 3.79019 0.0703085 3.85363 0.150137 3.90257L6.09915 6.9348C6.19712 6.96742 6.24974 7.02723 6.257 7.11604C6.26425 7.20485 6.23704 7.28098 6.17172 7.34622L3.81861 9.69879C3.64081 9.87641 3.43761 9.94891 3.21264 9.91628L2.16943 9.74591C1.94264 9.71329 1.74126 9.78579 1.56164 9.96341L0.979262 10.5452C0.913948 10.6105 0.890362 10.683 0.90669 10.7627C0.923019 10.8443 0.972004 10.9077 1.05183 10.9566L2.99492 12.0242C3.20538 12.1365 3.36685 12.2997 3.48115 12.5099L4.54976 14.4492C4.59875 14.5308 4.66224 14.5779 4.74389 14.5942C4.82553 14.6105 4.8981 14.587 4.9616 14.5217L5.54398 13.9399C5.72178 13.7623 5.79435 13.5593 5.7617 13.3346L5.59116 12.2924C5.5585 12.0659 5.63107 11.8647 5.80887 11.687L8.1638 9.33449C8.24544 9.25292 8.32527 9.2203 8.40691 9.23661C8.48856 9.25292 8.5448 9.30911 8.57746 9.40698L11.6109 15.35Z" fill="white"/>
</svg>
